/* XPM */
static char *_8975b40fb2945e1d1635be16137bea0tA1I3Po7XeV64et1[] = {
/* columns rows colors chars-per-pixel */
"64 64 253 2 ",
"   c None",
".  c #010303",
"X  c #000B01",
"o  c #01040B",
"O  c #000C0B",
"+  c #0A0208",
"@  c #001301",
"#  c #001B01",
"$  c #00140C",
"%  c #001A0D",
"&  c #000B12",
"*  c #090712",
"=  c #001413",
"-  c #001C15",
";  c #001C1A",
":  c #1D0000",
">  c #002115",
",  c #002204",
"<  c #023830",
"1  c #222623",
"2  c #573A32",
"3  c #71322D",
"4  c #77171F",
"5  c #005B17",
"6  c #0B5701",
"7  c #265906",
"8  c #224C07",
"9  c #006500",
"0  c #006B00",
"q  c #0C6800",
"w  c #186600",
"e  c #007200",
"r  c #007A00",
"t  c #006316",
"y  c #276900",
"u  c #005C2C",
"i  c #024639",
"p  c #005B3D",
"a  c #00553B",
"s  c #17433E",
"d  c #324C36",
"f  c #00673A",
"g  c #006D33",
"h  c #474838",
"j  c #554137",
"k  c #7A3C41",
"l  c #004C43",
"z  c #034C49",
"x  c #005344",
"c  c #005B44",
"v  c #00554C",
"b  c #005C4C",
"n  c #005452",
"m  c #005D53",
"M  c #005C5A",
"N  c #18514A",
"B  c #324F48",
"V  c #00664D",
"C  c #007648",
"Z  c #006253",
"A  c #006B5A",
"S  c #00675A",
"D  c #00735C",
"F  c #007C5D",
"G  c #007753",
"H  c #196D5C",
"J  c #006C61",
"K  c #007463",
"L  c #007C6B",
"P  c #007B63",
"I  c #017B75",
"U  c #1B7A69",
"Y  c #34796A",
"T  c #386452",
"R  c #495449",
"E  c #507270",
"W  c #686863",
"Q  c #6D696B",
"!  c #655A52",
"~  c #8C0F13",
"^  c #B30007",
"/  c #B00613",
"(  c #8C1C2A",
")  c #86262B",
"_  c #912127",
"`  c #B00229",
"'  c #DE303A",
"]  c #AD534F",
"[  c #B67677",
"{  c #8E5E60",
"}  c #F75658",
"|  c #FF4968",
" . c #F15866",
".. c #D96572",
"X. c #E3616E",
"o. c #E53544",
"O. c #00AD00",
"+. c #04AD08",
"@. c #17AA02",
"#. c #01B400",
"$. c #00BA00",
"%. c #05B308",
"&. c #18B200",
"*. c #01B516",
"=. c #0EAE18",
"-. c #28AB00",
";. c #37AB02",
":. c #26B101",
">. c #34B400",
",. c #2EAA17",
"<. c #03AC2A",
"1. c #0DB130",
"2. c #36A926",
"3. c #30AC30",
"4. c #3A9926",
"5. c #47AB15",
"6. c #569A38",
"7. c #4B9B36",
"8. c #47A539",
"9. c #49A82F",
"0. c #00C200",
"q. c #59D119",
"w. c #68D20E",
"e. c #56DA28",
"r. c #56D330",
"t. c #6AD528",
"y. c #73D32B",
"u. c #74D226",
"i. c #6CCC34",
"p. c #74CA35",
"a. c #65D738",
"s. c #75D537",
"d. c #6DCD2A",
"f. c #00855A",
"g. c #00905D",
"h. c #04AF4F",
"j. c #35A447",
"k. c #00846D",
"l. c #008B6D",
"z. c #008563",
"x. c #00946C",
"c. c #009A68",
"v. c #008474",
"b. c #008C74",
"n. c #01847B",
"m. c #008C7B",
"M. c #0F857A",
"N. c #009374",
"B. c #009B74",
"V. c #00937B",
"C. c #009B7C",
"Z. c #1A817E",
"A. c #3A826E",
"S. c #00A36C",
"D. c #00A274",
"F. c #00A27C",
"G. c #00A87F",
"H. c #4F9B51",
"J. c #66994D",
"K. c #4CA54B",
"L. c #649E61",
"P. c #00C165",
"I. c #78D747",
"U. c #76D04E",
"Y. c #7DD06B",
"T. c #86DD3C",
"R. c #B9807A",
"E. c #97FE6B",
"W. c #9BFE74",
"Q. c #98FF78",
"!. c #8FFF70",
"~. c #A5FE6A",
"^. c #A2FF73",
"/. c #A3FD7B",
"(. c #ACFE77",
"). c #B2FF77",
"_. c #91E467",
"`. c #B07C80",
"'. c #008C83",
"]. c #008986",
"[. c #009483",
"{. c #009A83",
"}. c #00948B",
"|. c #009B8B",
" X c #009B92",
".X c #009494",
"XX c #00A283",
"oX c #00A58B",
"OX c #00BC9C",
"+X c #03B897",
"@X c #18BB9B",
"#X c #00A59C",
"$X c #31B196",
"%X c #00BDA2",
"&X c #00B8A5",
"*X c #17B9A6",
"=X c #35B7A3",
"-X c #58AD97",
";X c #49B199",
":X c #6FA992",
">X c #6CA195",
",X c #00C39C",
"<X c #00CB9C",
"1X c #00C694",
"2X c #00D198",
"3X c #00CE8D",
"4X c #00C3A3",
"5X c #00CBA3",
"6X c #00C8AA",
"7X c #05CEA7",
"8X c #00FEAC",
"9X c #00EBBA",
"0X c #00FEB5",
"qX c #00F5BC",
"wX c #00FEBC",
"eX c #00F6B6",
"rX c #23D0B0",
"tX c #4ED8A3",
"yX c #01EEC6",
"uX c #00F4C4",
"iX c #00FEC3",
"pX c #00FECB",
"aX c #00F5CA",
"sX c #00FDD2",
"dX c #00F9D6",
"fX c #2FEAC9",
"gX c #00FFE0",
"hX c #54EAC4",
"jX c #84A691",
"kX c #99858B",
"lX c #96FE8F",
"zX c #A9FE86",
"xX c #B6FD87",
"cX c #B6FB98",
"vX c #ADF694",
"bX c #AAF7AC",
"nX c #C4F49A",
"mX c #D5D2B9",
"MX c #95DBCE",
"NX c #ABD5CD",
"BX c #A9E6DE",
"VX c #B4F7F4",
"CX c #89EFE2",
"ZX c #D1D2D3",
"AX c #FBCFC9",
"SX c #FFEAD7",
"DX c #C8FFFF",
"FX c #D7FFFD",
"GX c #FFECEA",
"HX c #FFEBF4",
"JX c #FDFBF9",
"KX c #F4F9F2",
"LX c #ECDBEA",
/* pixels */
"                                                                                                                                ",
"                                                                                                                                ",
"                                                                                                    d                           ",
"                                                                                                    7                           ",
"                                                                                            w 9 9 9 _.@ @ X                     ",
"                                                                    7.8.7.K.6.6.7 7 6 8 8 7 U.I.,.2.4.w y J.X X                 ",
"                                                                    8.,.2.,.5.5.w y w y w q T.w.&.@.9.q 9 6.@ .                 ",
"                                                            J.6.8.3.lXQ.W.^.!.E.(.(.).U.I.s.w.w.#.&.U.0 e 7.X .                 ",
"                                                            9.5.,.=.W.(.^.W./.W.W.zX/.U.i.s.u.t.-.:.a.e 0 6.X +                 ",
"                                                          8.Q.!.!.Q.^.~.^.W.zXzXQ.!./.W.zX-.;.;.s.q.r.@.>.9 . +                 ",
"                                                          4.Q.W.W.^.~.).).xXvXcXQ.!././.!.-.@.>.d.t.a.@.>.9 @ o                 ",
"                      i a c                           H.j.lXlXlXlXlXzXlXlX9 # # 8.,.;.;.@.!.a.q.y.t.t.>.;.0 # X                 ",
"                    P     fXc i i i   S S S J S K A V G G C f f C g 5 5 5 tX;X-X# , xX^.E.^.E.).y.t.t.d.I.0 3.L.@ X             ",
"                    f.pXiXqXf p c x   F F F P z.F z.F G F D K L K D f g g 9X%X;XX X nX).E.~.~.).y.t.u.y.I.0 2.2.# X             ",
"                    x.iXiXiXiXyXP L F uXiXeXpXiXiXuXiX<X1X5X&X&Xm p eX0X0XiX%X=XX X cX).^.^.(.(.s.p.u.y.d.e :.&.,.L.X           ",
"                    x.iXiXiXwXpXz.f.f.iXwXwXiXiXpXpXiX1X<X,X%X%Xc f 0X8XwXpX4X=XX X nXxX/.^.~.~.i.s.y.t.t.e ;.-.&.2.@           ",
"                    B.sXpXS.wXwXiXiX0XwXwXeXD.C.XXC.F.sXuX<X4X,XuXeXwXiXeX<X4X=XO . nXxX/./.~.~.t.t.u.y.e.-.0 0 -.9.X           ",
"                    N.sXpXc.0X0XwX0XwXwXiXpXC.{.[.|.XXpXpX2X,X,XwXwXiXiXqX,XOXOX$ @ nXzXzXW.~.~.q.t.u.s.e.-.q q >.-.@           ",
"                    k.z.f.iXwXwX0XpXwXpXuXB.C.|.}.{.x.pXwXeX1X<XaXpX,X<X,XOX4X5XN.x., cX/.(.(.~.t.q.u.y.r.2.9 0 @.;.J.@ .       ",
"                    k.z.f.wXwX0XwX0XiXpXgXXX{.{.m.{.c.wX0X0X2X,XfXaX,X5X4XOX,X,XF.g.# cXxX~.~.~.s.t.y.s.a.@.0 0 >.;.9.@ X       ",
"                    F sXiXwXiXwXwXwXpXB.V.{.C.{.C.S.wX8X0X0X1X4X6X4X5X4X4X4X,X<XF.F.# nXxX).d.I.p.s.q.q.e.#.#.O.0 0 2.# @       ",
"                    z.uXpXwXeXwX0XwXiXG.{.C.{.F.sXiX8X0X8XwX5X4XN.N.N.4X%X%X,X5XB.B.@ nXnXp.I.i.s.s.e.#.#.O.#.&.0 0 *.1.H.X     ",
"                    z.uXeXpXwXiX0XwXiXD.B.C.G.S.wX0XwX8XiXiX4X4Xb.b.v.*X&X6XOX6XXXV.# bXcXU.i.y.y.d.e.$.#.0.#.&.9 9 *.+.K.@     ",
"                H S c uXwX3XiXiXwXwXwXiXsXdXpXpXiXwX0X3X2XuXD A MXMXMXv x &X{.V.{.V.k.# # Y.i.u.y.t.#.#.$.#.$.@.w 9 #.#.j.@     ",
"                A D p hXqX2XqXiXwXwXwXwXpXsXdXsXwXwX0X3X5XfXN ! mXmXNXz x *X[.[.V.V.k.# # Y.a.w.q.e.#.$.#.#.*.3.9 9 O.*.j.@     ",
"                b a Y F c.wX<X<XiXwX0X0XpXD.XXB.iXwX2XuXuXG { ] ) 4 JXNXMXm }.}.{.C.k.# @ 6 ,.$.#.#.$.O.$.%.<.3.9 0 O.+.K.@     ",
"                x a E A.c.iX,X<XwXiXwXwXpXB.V.B.pXiX<XuXiXC ] o./ ~ JXNXMXl .X}.V.V.n.$ $ u 1.O.$.$.$.#.$.#.3.9.0 0 &.@.8.#     ",
"                l l W W z.aX5X<XiXwXwXS.c.F.B.C.pXpX5XaX9Xf ] ' ^ ~ GXJXFXx ]. X{.V.'.= = a h.<.#.#.$.$.O.$.0 0 ;.-.@.-.8.@     ",
"            m J BXZX{ GXVXz.pXiXiXiXwXS.D.x.aXsXpXuXsXx.z.L.SXSX^ / 4 GXJXBX'.}.XXV.'.S n N.5 9 *.$.#.#.$.O.r e >.O.&.;.7.@     ",
"            K A NXZX{ HXFXk.aXpXiXwXpXD.c.S.wXiXiXsXpXl.Y ! KXSX/ / _ GXGXNX'.|.XXC.|.m Z b.p u h.<.#.$.O.#.e e O.#.>.9.J.X     ",
"            D K FXHXk GXFXv.,X1XiXwXpXiXiXwX0X8XwXpX,Xk.A.B JXHX .| X.GXJXNXn.[.V.{.[.m.k.V.V.N.u t 1.O.*.r :.$.$.#.3.# X       ",
"            D P DXJX3 HXJXL 6X,XqXiXsXsXiXwX8X0XwXuX5Xl.Y d JXHX| | X.GXJXMX[.[.|.[.|.k.k.{.}.[.S u h.3.1.e &.#.$.*.3.@ X       ",
"            A z.+XjX) ( j Y *X4X5X,X4X,X5X<X<X1X<X<X<Xg.A.2 ( ` | | X.AXNXb.|.[.|.[.|.[.|.|.}.}.}.b.f 5 9 j.=.O.$.%.9.@ X       ",
"            K F ,X:X2 3 h A.+X6XOX4X4X%XOXOX4X6X4X,X1Xx.U h 3 ( ....[ ZXCXm.n.|.|.|.{.oX|.[.|.|.|.|.b c u h.<.*.$.O.6.@ .       ",
"            a x @ @ >X-X$XoX6X4X6XOX4X5X,X4X4XOX%XOX6X4X@X;X-X-X:X-X-XL b.m.m m [.{.B.C.{.[.|.|.{.{.}.m.x.t <.*.#.3.#           ",
"            i b = - =XrX4X@X=X+X4X,XOX4X4X4X4X6X6X4X4X&X&X&X%X4XOX7XOXV.V.m.m S [.{.{.V.C.{.|.{.{.V.}.[.B.g P.h.1.K.X           ",
"            s i v.v.% l x :XjX:XG f.<X+XOXB.4X4X+X+X&X$X;X;X$X$XD D c % > > [.}.'.}.v.|.C.{.|.}.Z b Z {.B.B.u u # @             ",
"                x Z ].DXFXB h d -X@X+X@X,X+XOX%XF D l . X X X @ DXVXP m.m.[.|.|.}.}.v |.{.XX|.'.m m b c c {.V.[.m l             ",
"                l i n.DXFXB h h jXjXjXjX:X:X:X:XT R 2 : : : : + FXVXL |.m.|.|.|.}.].J |.{.{.{.V.n M v Z V m. X].M z             ",
"                    v I A.Y T R h j 2 2 3 3 3 3 3 3 _ ( ) 3 3 2 H I [.|.}. X[.[.m S [.[.|.V.V.{.}.].m x Z [.}..X}.].z           ",
"                    l I ].I D A d j 3 _ / ^ / ^ ^ ^ / ` _ 3 2 B K L |.|.}.'.n.m.b V {.|.|.[.|.V.{.[.m b Z {.|.}.[.[.v           ",
"                      $ = - [.v.Y W k ) / ' } } } }  .X.[ ! E U m.[. X}.].; - % V.V.|.|. X#X'.{.k.L {.{.V.|.'.|. X[.v           ",
"                      . o & ].n.n.Y T R 2 { R.[ [ [ `.kX>XH m.m.v.n.n.]..X- = > b.{.}. X.X}.}.[.m.P C.N.C.{.|.}.}.'.x           ",
"                            = ; ; - Z.E W Q W W Q Q Q E E I n.m.% % - - - '.n.n.[.m.}. X}.|.m m m.|.V.C.V.c [.}.[.|.n.$ X       ",
"                            < b V.V.> o * * O O * + * & o ; $ - V.{.V.{.{.{.{.{.[. XS {.XXC.- ; '.[.|.Z S Z b b V.b.b.$ .       ",
"                            x c x.B.# - . . O O & & & & O O O $ V.V.C.N.B.C.XX|.|.}.Z {.l.N.$ $ }.|.'.b m x l b B.B.V.% o       ",
"                            k.B.iXiXuXyXyXl.x v n.m.'.'.[.n.[.[.[.{.G aXsXsXN.|. X'.V.b b % m.{.[.|.|.b b M n m V.V.v.$ .       ",
"                            k.N.uXiXiXiXpXc.p Z V.{.{.[.{.{.{.{.}.[.V aXpXpXD.F.[.[.b.b l $ {.{.|.[.[.m n z n M {.{.m.$ O       ",
"                                F z.c.pXwXwXB.V.Z m ; '.N.C.XXV.Z m {.C.F.iXpXpX{.[.m.b l - {.{.{.{.[.M M n n m {.N.m.$ .       ",
"                                K z.B.pXwXpXD.V.b m ; ].V.N.b.V.b v |.{.B.pXiXiX{.|.V.b x $ {.{.{.|.'.M n n M m B.B.m.$ .       ",
"                                K z.B.iXiXiXD.B.V.V.I = = O & = v m V.{.B.D.iXiXC.[.V.c b $ m.[.{.V.{.[.[.m [.b.B.C.$           ",
"                                K z.D.iXiXpXc.C.C.V.'.= & o o & x Z {.{.F.x.iXiXXX{.{.c l = n.m.m.{.{.V.m.x b.N.B.b.o           ",
"                                M.b.9XpXiXiXsXsXV.{.v.O o LXJXBXm.b.dXB.F.D.wXpXB.|.m.l N   - $ J K V.K L CXK D N.m.o           ",
"                                    f.qXiXc.pXpX{.V.v.O o   ZXFXb.B.dXdXdXaXiXiXG.{.%       < z     x     i     a i             ",
"                                    f.9XuXB.uXaXB.m.v.@ .       l.B.sXaXsXpXiXpXV.[.$       s s     s     B     z i             ",
"                                z x   p c VXp V {.V.%           p f sXB.B.aXc.x.V.n.O           . + . . . . . .                 ",
"                                N <   a i BXl x n.n.%           a a fXB.N.fXl.z.v.Z.o           . + . . . O . .                 ",
"                                    X . . O . O & O         1 d     c     x     = &                                             ",
"                                    . + + . o o & &         < <     s     N     O o                                             ",
"                                                                o . . . . . + .                                                 ",
"                                                                                                                                ",
"                                                                                                                                ",
"                                                                                                                                ",
"                                                                                                                                "
};
