/* XPM */
static char *fa187fc423bb45a6b310996008e31d52ZzwRRlIZybPIVhkg[] = {
/* columns rows colors chars-per-pixel */
"64 64 149 2 ",
"   c None",
".  c #000000",
"X  c #080000",
"o  c #000E0A",
"O  c #001300",
"+  c #001213",
"@  c #00392B",
"#  c #003C32",
"$  c #1B5600",
"%  c #1D5800",
"&  c #245900",
"*  c #285C00",
"=  c #006900",
"-  c #136300",
";  c #1D6200",
":  c #226300",
">  c #316600",
",  c #004F27",
"<  c #005026",
"1  c #005925",
"2  c #004237",
"3  c #00463D",
"4  c #004A3B",
"5  c #006E3F",
"6  c #004E41",
"7  c #004F4C",
"8  c #005445",
"9  c #005846",
"0  c #005649",
"q  c #00594A",
"w  c #005650",
"e  c #005951",
"r  c #007349",
"t  c #007F4A",
"y  c #007D45",
"u  c #006457",
"i  c #006956",
"p  c #006F5C",
"a  c #00735E",
"s  c #007B5D",
"d  c #007564",
"f  c #007C66",
"g  c #007D69",
"h  c #007B70",
"j  c #94000B",
"k  c #AF000B",
"l  c #BD0003",
"z  c #BD0009",
"x  c #B90011",
"c  c #C10005",
"v  c #C1000B",
"b  c #FF0324",
"n  c #FF0D26",
"m  c #FF0728",
"M  c #FF0C29",
"N  c #FD132A",
"B  c #FF3E5B",
"V  c #C94140",
"C  c #FF425D",
"Z  c #00B700",
"A  c #00B900",
"S  c #19B100",
"D  c #00B534",
"F  c #00B53D",
"G  c #3AB02F",
"H  c #32B12D",
"J  c #2CB130",
"K  c #35B135",
"L  c #5AD423",
"P  c #6ECF25",
"I  c #71CF2D",
"U  c #6ED325",
"Y  c #6CD32A",
"T  c #72D325",
"R  c #71D22A",
"E  c #7ADA21",
"W  c #6FCF31",
"Q  c #6AD838",
"!  c #6DD831",
"~  c #75D631",
"^  c #00805A",
"/  c #00B241",
"(  c #0BB442",
")  c #008169",
"_  c #008673",
"`  c #009773",
"'  c #009A73",
"]  c #00957B",
"[  c #00997C",
"{  c #9EFA66",
"}  c #A7FF6B",
"|  c #ACFF6C",
" . c #A5FF71",
".. c #A9FF73",
"X. c #AEFF7A",
"o. c #B4FF75",
"O. c #008F80",
"+. c #009585",
"@. c #009A85",
"#. c #00978C",
"$. c #009A89",
"%. c #00A185",
"&. c #00A28B",
"*. c #00BF9F",
"=. c #00BFA3",
"-. c #00C094",
";. c #00C29F",
":. c #00C3A2",
">. c #00C6A8",
",. c #00C8A8",
"<. c #25C1A4",
"1. c #32C3A9",
"2. c #00FFB6",
"3. c #00FFB9",
"4. c #00FEC4",
"5. c #00FECA",
"6. c #34EDCD",
"7. c #4FEBCF",
"8. c #43EFD1",
"9. c #48EDD0",
"0. c #BCDDD6",
"q. c #BCE0D8",
"w. c #C7CCC7",
"e. c #CBCDC6",
"r. c #C7CFCB",
"t. c #CACCCA",
"y. c #C4C3C1",
"u. c #D6C7C5",
"i. c #D1CBC7",
"p. c #C0D2C9",
"a. c #C0DCD6",
"s. c #D7DDD9",
"d. c #DBDDDC",
"f. c #DCD7D4",
"g. c #E0DBDA",
"h. c #D7E6E4",
"j. c #DAE9E9",
"k. c #DEFFFF",
"l. c #E3E3E4",
"z. c #EDE7ED",
"x. c #E0EAED",
"c. c #FFEFEF",
"v. c #FFEFF0",
"b. c #EDFFFF",
"n. c #F5F6F8",
"m. c #F6FEFD",
"M. c gray99",
"N. c #FDFDFD",
"B. c #F9FCF6",
/* pixels */
"                                                                                                                                ",
"                                                                                                                                ",
"                                                                                                                                ",
"                                                                                                                                ",
"                                                                                                ; - Y . . .                     ",
"                                                                                    $ % & * E Q A A A > : A . .                 ",
"                                                                    Z Z Z Z Z Z : : : : : : ~ Y Z Z Z : ; Z . .                 ",
"                                                              Z A Z ..................R R R R Y Z Z R : ; Z . .                 ",
"                                                            Z Z Z Z ..................R R R R R Z Z R : ; Z . .                 ",
"                                                          A | ............................A A A T R R A A - . .                 ",
"                                                          Z  ...........| X.o.o.X.........Z Z Z T R R Z A ; . .                 ",
"                        0 0                           A A ........ ...| X.0 . . A Z Z Z Z ..W R R R R A A ; . .                 ",
"                    _ 5.4.4.8 2 3 2   p a d p a p a i y t r r r r 5 , , < 5.<.<.O O ........{ ..R R R ! L : J G X .             ",
"                    $.2.3.3.8 0 0 8   g g g g g g g g g g g g g g ) 0 q 0 3.;.;.. . ............Y R R R U ; A Z . .             ",
"                    $.2.3.3.3.3.g g g 3.3.3.3.3.3.3.3.:.;.;.;.;.0 8 3.3.3.3.;.;.. . ............Y R R R U ; A Z Z A .           ",
"                    $.2.3.3.3.3.g g g 3.3.3.3.3.3.3.3.:.;.;.;.;.0 8 3.3.3.3.;.;.. . ............Y R R R U ; A Z Z A .           ",
"                    $.2.3.@.3.3.2.2.2.3.3.3.@.@.@.@.@.2.3.;.;.;.2.2.3.3.3.:.;.;.. . ............Y R R R T Z ; : Z A .           ",
"                    $.3.3.$.4.3.3.3.3.3.2.2.[ $.$.$.$.2.3.;.;.;.3.3.3.3.3.;.;.;.X . } ..........Y R R R R A ; : Z A .           ",
"                    $.g g 3.3.3.3.3.3.3.2.$.$.$.$.$.$.3.3.3.;.:.7.9.;.;.;.;.;.;.$.$..  .........U R R R R A - : A A Z .         ",
"                    +.^ s 3.3.3.3.3.3.4.5.@.$.$.$.@.[ 3.3.3.;.;.8.6.;.;.;.;.;.;.$.$..  .....{ | R R R R R A = = S S Z . .       ",
"                    f 3.3.3.3.3.3.3.3.$.$.$.$.$.$.+.3.3.3.3.;.;.;.;.;.;.;.;.;.;.$.$..  .....I R R R R R R A Z A : ; Z . .       ",
"                    f 3.3.3.3.3.3.3.3.$.$.$.$.@.3.3.3.3.3.3.;.;.$.$.$.;.;.;.;.;.$.$..  ...P R R R R R Z Z Z Z A : ; Z A A .     ",
"                    f 3.3.3.3.3.3.3.3.$.$.$.$.@.3.3.3.3.3.3.;.;.$.$.$.;.;.;.;.;.$.$..  ...R R R R R R Z Z Z Z A : ; Z Z Z .     ",
"                f f 8 2.3.:.3.3.3.3.3.3.3.3.3.2.3.3.3.:.=.3.a g t.t.t.q 0 ;.$.$.$.$.@.. . R R R R Y Z Z Z Z Z A : ; Z Z Z .     ",
"                g f 8 3.3.:.3.3.3.3.3.3.3.3.3.3.3.3.2.*.=.3.d g t.w.e.8 8 ;.$.$.$.$.@.. . R R Y Y Y Z Z Z Z Z A : ; Z Z Z .     ",
"                8 9 m #.$.3.;.:.2.3.3.3.2.@.$.@.3.3.:.2.3.h n m z k M.e.i.0 $.$.$.$.@.. . 0 Z Z Z A Z Z Z Z / F : ; Z Z Z .     ",
"                q 0 N @.$.3.;.:.3.3.3.3.3.@.$.@.3.3.;.3.3.g n M z l M.e.y.0 $.$.$.$.@.. . 0 A Z Z Z Z Z Z Z F ( ; ; Z Z Z .     ",
"                q 0 N @.$.3.;.:.3.3.3.$.$.$.$.@.3.3.;.3.3.g n M z l M.M.M.0 $.$.$.$.@.. . 0 A Z Z Z Z Z Z Z ; : Z Z Z Z Z .     ",
"                0.q.N k.k.[ 4.3.3.3.3.$.$.$.4.4.3.3.3.[ [ V c.v.l l j M.M.a.+.$.$.$.@.8 8 +.1 1 Z Z Z Z Z Z ; : Z Z Z Z Z       ",
"              f t.r.N M.M.$.3.3.3.3.3.$.$.$.3.3.3.3.3.#.$.b M.M.l c c M.M.e.+.$.$.$.@.0 0 $.0 8 A Z Z Z Z Z ; : Z Z Z Z Z       ",
"              g M.M.z n.M.$.;.;.3.3.3.2.2.2.2.3.3.3.:.$.$.l m.M.B C C M.M.w.+.$.$.$.@.) g $.$.$.0 q Z Z A : Z A Z Z Z . X       ",
"              g M.m.l M.M.$.:.:.2.2.2.2.2.2.2.2.2.2.;.$.$.c M.M.C C C M.m.t.@.$.$.$.$.f f $.$.@.9 w Z Z A ; A Z Z Z Z . .       ",
"              g ;.:.l l c $.:.;.:.;.;.;.;.;.;.;.;.;.;.$.$.l l v C C C e.u.@.$.$.$.$.$.$.$.$.$.$.$.@.0 0 0 Z Z Z Z Z Z . .       ",
"              f ;.;.l l c $.>.;.;.;.;.;.;.;.;.;.;.;.;.+.$.l l l C C C p.e.$.$.$.#.$.$.$.$.$.$.$.$.$.8 8 7 A A Z Z Z A . .       ",
"              0 . . ;.;.;.;.;.;.;.;.;.;.:.;.;.;.;.;.;.;.;.;.;.;.;.;.;.$.$.$.8 0 $.$.$.$.$.$.$.$.$.$.$.$.$.q A Z Z A             ",
"              0 o o 1.>.>.;.;.:.:.:.;.;.:.,.:.:.:.:.;.;.;.;.;.:.:.,.:.+.+.+.q q $.$.+.$.$.$.$.$.+.+.+.$.$.q D D K H             ",
"              0 $.$.. 0 0 ;.;.;.f d ;.;.;.$.:.:.-.-.;.;.;.;.;.;.g ) 0 . . . $.$.$.@.g $.$.$.$.@.0 0 0 $.$.$.0 0 . .             ",
"                0 e @.M.M.c c c :.,.;.;.;.:.;.:.f f 8 . . . . . M.b.) %.$.$.$.$.$.@.8 $.$.$.$.@.0 0 0 0 8 $.@.@.q               ",
"                0 0 @.B.M.c z c ;.:.:.:.:.:.:.;.g g 0 . . . . . M.M.g @.$.$.$.$.$.@.8 $.$.$.$.$.9 q 0 0 0 @.$.$.0               ",
"                      $.@.$.g f z c z z c c z z c c z z c c c c g g $.$.$.$.$.$.8 8 $.#.$.$.$.$.$.$.0 0 0 @.$.@.$.              ",
"                      $.@.@.g g v z z c c z l z z z z z x z c z g g $.$.@.@.@.@.9 0 $.$.$.$.$.$.$.$.9 9 8 $.$.$.$.              ",
"                      . . . $.$.$.$.g c l N C C C C C C C g @.$.$.$.$.$.$.. . . $.$.$.$.$.$.$.@.g f $.$.$.$.$.$.$.              ",
"                            &.$.$.$.g c c b B C C C C C C g $.$.$.$.$.$.$.. . . $.$.$.$.$.$.$.@.g f $.$.$.$.$.$.$.$.8           ",
"                            . . . . $.$.$.$.$.$.$.$.$.$.$.$.$.$.. . . . . $.$.$.$.$.$.$.$.$.0 0 @.$.$.$.$.q @.$.$.$.$.. .       ",
"                            # 0 +.O.o o o o o o o o o o o o o o +.+.+.+.+.$.$.$.$.@.q $.$.$.+ o $.$.$.q u q q q $.$.$.. .       ",
"                            4 0 $.@.. . . . . . . . . . . . . . $.$.$.$.$.$.$.$.$.@.0 $.$.$.. . $.$.$.0 0 8 q 8 $.$.$.. .       ",
"                            ] $.2.3.3.3.3.$.0 0 $.$.$.$.$.$.$.$.$.@.8 3.3.3.+.$.$.$.$.8 8 . &.#.$.$.$.0 0 0 0 0 $.$.$.. .       ",
"                            ] +.3.3.3.3.2.@.0 9 $.$.@.$.$.$.$.$.$.$.q 3.2.3.+.@.@.$.@.0 0 . @.$.$.$.$.0 0 0 0 0 $.$.$.. .       ",
"                                g f $.3.3.3.@.$.0 q . $.$.$.$.@.0 0 @.$.#.3.3.3.@.$.@.0 0 . @.$.$.$.$.0 0 0 0 0 $.$.$.. .       ",
"                                g f $.3.3.3.@.$.0 q . $.$.$.$.@.0 0 @.$.#.3.3.3.@.$.@.0 0 . @.$.$.$.$.0 0 0 0 0 $.$.$..         ",
"                                  f $.3.3.3.@.$.$.$.$.. . . . . 0 0 @.$.$.$.3.3.@.$.@.0 0 . @.$.$.@.%.$.$.q @.$.$.$..           ",
"                                  ) [ 3.3.3.' ' $.$.$.. . X . . q 8 ` @.$.$.3.3.@.$.@.0 0 . ] ] +.+.$.+.+.3 @.+.$.$..           ",
"                                    3.3.3.3.2.2.$.$.$.. .       @.@.2.$.$.$.3.3.@.$.@.0 0     . g g $.g f s.s f $.$..           ",
"                                    f 3.3.@.4.3.$.$.$.. .       @.@.3.4.3.3.3.3.@.@..       4 q M.x.8 M.l.6 j.M.8 8             ",
"                                    g 3.3.$.3.3.$.$.$.. .       $.@.3.3.2.3.2.2.$.$..           M.l.0 M.f.0 h.M.q               ",
"                                    M.0 q M.6 0 $.$..           0 8 3.$.#.3.+.$.@.$..           . . . . . . . .                 ",
"                                    d.q 0 d.6 0 $.$..           0 8 3.$.#.3.+.$.$.$.            . . . . . . .                   ",
"                                    . . . . . . . .         8 0 M.M.0 M.g.0 l.s.. .                                             ",
"                                    . . . . . . . .         @ 4 M.b.q M.z.q l.l.. .                                             ",
"                                                                                                                                ",
"                                                                                                                                ",
"                                                                                                                                ",
"                                                                                                                                ",
"                                                                                                                                "
};
