/* XPM */
static char *a365f86c0d454999f0504f52f6bc8141b6ej4G4I5KcLQthv[] = {
/* columns rows colors chars-per-pixel */
"64 64 19 1 ",
"  c #583840",
". c #784848",
"X c #404868",
"o c #585870",
"O c #A82028",
"+ c #C85048",
"@ c #D86860",
"# c #E89070",
"$ c #787880",
"% c #70C8A0",
"& c #4880C0",
"* c #60A0D8",
"= c #70B8F0",
"- c #90A0B0",
"; c #F8C888",
": c #A8B8C8",
"> c #98D0F8",
", c #C8D8E8",
"< c #F0F0F8",
/* pixels */
".o;;;####@@#@@@@@@#@@#@@#@@@@@@#@@@#@@#@@#@@@@@@#@@#@@####;;;;  ",
"o;;###@@#@@#@@@@@@#@@#@@#@@@@@@@@@@#@@#@@#@@@@@@#@@#@@#@@###;;o ",
";;@++#@@#@@#@@@@@@#@@#@@#@@@@@@#@@@#@@#@@#@@@@@@#@@#@@#@@#++@@;$",
"@@+++#####################################################++++@$",
"+++++#@@#@@#@@@@@@#@@#@@#@@@@@@#@@@#@@#@@#@@@@@@#@@#@@#@@@+++++X",
"+++++#@@#@@#@@@@@@#@@#@@#@@@@@@@@@@#@@#@@#@@@@@@#@@#@@#@@@+++++X",
"+++++#@@#@@#@@@@@@#@@#@@#@@@@@@#@@@#@@#@@#@@@@@@#@@#@@#@@@+++++X",
"+++++#####################################################+++++X",
"+++++#@@#@@#@@@@@@#@@#@@#@@@@@@#@@@#@@#@@#@@@@@@#@@#@@#@@@+++++X",
"+++++#@@#@@#@@@@@@#@@#@@#@@@@@@@@@@#@@#@@#@@@@@@#@@#@@#@@@+++++X",
"+++++#@@#@@#@@@@@@#@@#@@#@@@@@@#@@@#@@#@@#@@@@@@#@@#@@#@@@+++++X",
"+++++#@@#@@#@@@@@@#@@#@@#@@@@@@#@@@#@@#@@#@@@@@@#@@#@@#@@@+++++X",
"+++++#@@#@@#@@@@@@#@@#@@#@@@@@@@@@@#@@#@@#@@@@@@#@@#@@#@@@+++++X",
"+++++#@@#@@#@@@@@@#@@#@@#@@@@@@#@@@#@@#@@#@@@@@@#@@#@@#@@@+++++X",
"+++++#####################################################+++++X",
"+++++#@@#@@#@@@@@@#@@#@@#@@@@@@#@@@#@@#@@#@@@@@@#@@#@@#@@@+++++X",
"+++++#@@#@@#@@@@@@#@@#@@#@@@@@@@@@@#@@#@@#@@@@@@#@@#@@#@@@+++++X",
"+++++#@@#@@#@@@@@@#@@#@@#@@@@@@#@@@#@@#@@#@@@@@@#@@#@@#@@@+++++X",
"+++++#####################################################+++++X",
"+++++#@@#@@#@@@@@@#@@#@@#@@@@@@#@@@#@@#@@#@@@@@@#@@#@@#@@@+++++X",
"+++++#@@#@@#@@@@@@#@@#@@#@@@@@@@@@@#@@#@@#@@@@@@#@@#@@#@@@+++++X",
"+++++#@@#@@#@@@@@@#@@#@@#@@@@@@#@@@#@@#@@#@@@@@@#@@#@@#@@@+++++X",
"+++++#####################################################+++++X",
"+++++#@@#@@#@@@@@@#@@#@@#@@@@@@#@@@#@@#@@#@@@@@@#@@#@@#@@@+++++X",
"+++++#@@#@@#@@@@@@#@@#@@#@@@@@@@@@@#@@#@@#@@@@@@#@@#@@#@@@+++++X",
"+++++#@@#@@#@@@@@@#@@#@@#@@@@@@#@@@#@@#@@#@@@@@@#@@#@@#@@@+++++X",
"+++@@#@#################################################@#@@+++X",
"++@#@#@@#@@#@@@@@@#@@#@@#@@@@@@#@@@#@@#@@#@@@@@@#@@#@@#@@#@#@++X",
"++##@+@@#@@#@@@@@@#@@#@@#@@@@@@#@@@#@@#@@#@@@@@@#@@#@@#@@#@##@+X",
"+@#@++###@@#@@@@@@#@@#@@#@@@@@@#@@@#@@#@@#@@@@@@#@@#@@###++@##+X",
"@#@+++O+###############################################+O+++@#@X",
"##++++OOOOOOOOOOOOOOOOOOOOOOOOOOOOOOOOOOOOOOOOOOOOOOOOOOO++++@#X",
"@+++++OOOOOOOOOOOOOOOOOOOOOO:<<<<<:oOOOOOOOOOOOOOOOOOOOOOO++++@X",
"+++++OOOOOOOOOOOOOOOOOOOOOOo<<<<<<<<OOOOOOOOOOOOOOOOOOOOOO+++++X",
"X++++OOOOOOOOOOOOOOOOOOOOOo<<:::::<<oOOOOOOOOOOOOOOOOOOOOO++++X$",
"$X++OOOOOOOOOOOOOOOOoooooo<<:#####::<ooooooOOOOOOOOOOOOOOOO+++$$",
"$X++OOOOOOOOOOOOOOOo<<<<<<<:@@@@@@@,<<<<<<<oOOOOOOOOOOOOOOO++X$$",
"$XXXXXXXXXXXXXXXXXX<<<<<<<:,@@@@@@@@:<<<<<<<oXXXXXXXXXXXXXXXX,$$",
"$X,-$$$X&&&&$$X&&&&<::::::,+++,,,+++,::::::<o&&&&$$&&&&X$$$-,<$$",
"$X<,--$X&&&&$$X&&&&:,,,,,,,++,@+@,++,,,,,,,::&&&&$$&&&&X$$-,<<$$",
"$X<<<,:X&&&&::X&&&&,,$,,,,,,,,+++,,,,,,,,$,,o&&&&::&&&&X::<<<<$$",
"X<,<<<,X===&,,X===&,,,,,,,,,,,OOO,,,,,,,,,,,o====,,&===X,,<<,<X$",
"X<<:<<,X===&,,X===&,,,,,,,,OO,+O+,OO,,,,,,,,o====,,&===X,,<:<<X$",
"X<<<:<,X&&&&,,X&&&&,,,,,,,,+OO,,,OOO,,,,,,,,o&&&&,,&&&&X,,:<<<X$",
"X:<<<:::<<<<:::<<<<o,,,,,,,,OOOOOOOO,,,,,,,o$<<<<::<<<<:::<<<<X$",
"$X<<<<<<<<<<<<<<<<<:XXXXX$o,OOOOOOO,o$XXXXX:$<<<<<<<<<<<<<<<<:$$",
"$X:<<<,,,,,,,,,,,,,:-------o,+OOO+,,-------:$,,,,,,,,,,,,,<<:<$$",
"$X<:<<,,,,,,,,,,,,,:---------,,,,,-o-------:$,,,,,,,,,,,,,<:<<$$",
"$X<<:<,,,,,,,,,,,,,,::::::::-ooooo-::::::::,$,,,,,,,,,,,,,:<<<$$",
"$X<<<,:::::::::::::<,,,,$XXXXXXXXXXXXX$,,,,<$$$$$$$$$$$$$$<<<<$$",
"$X<<<,<<<<<<<<<<<<<<,,,,$X&&&&&&&&&&&X$,,,,<$:::::::::::::<<<<$$",
"X-<<<,<####<<<###<<<,,,,$X&&&&&&&&&&&X$,,,,<$,,,,,,,,,,,,,<<<<X$",
"X<<<<,<@@<@<<<@,,<<<,,,,$X&&&&&&&&&&&X$,,,,<$,,,,,,,,,,,,,<<<-X$",
"X,<-<,<OOOO<<<O,<<<<,,,,$X***********X$,,,,<$,,,,,,,,,,,,,<-<,X$",
"X,,<-,<OO,,O<<OOO<<-----$X***********X$-----$,,,,,,,,,,,,,-<,,X$",
"X,,,<-<,,<<<<<,,,<<<,,,,$X***********X$,,,,<$,,,,,,,,,,,,,<,,,X$",
"X,,,,<$$$$$$$$$$$$$<,,,,$X***********X$,,,,<$$$$$$$$$$$$$$,,,,X$",
"$X,,,,,,,,,,,,,,,,,-----$X***********X$-----$,,,,,,,,,,,,,,,,,$$",
"$$,,,,:::::::::::::<,,,,$X***********X$,,,,<$:::::::::::::,,,X$$",
"$$X,,,:::::::::::::<,,,,$X>>>>>>>>>>>X$,,,,<$:::::::::::::,,X$$%",
"%$$X,,:::::::::::::<,,,,$X>>>>>>>>>>>X$,,,,<$:::::::::::::,X$$%%",
"%%$$X,:::::::::::::,::::$XXXXXXXXXXXXX$::::,$:::::::::::::X$$$%%",
"%%$$$XXXXXXXXXXXXXX,::::$X$$$$$$$$$$$X$::::,$XXXXXXXXXXXXX$$$%%%",
"%%%$$$$$$$$$$$$$$$$XXXXXX$$$$$$$$$$$$$XXXXXXX$$$$$$$$$$$$$$$%%%%"
};
