/* XPM */
static char *_3b5446d90ae49f3905ed609888f5595KJIRe88vuaKXnWwR[] = {
/* columns rows colors chars-per-pixel */
"64 64 6 1 ",
"  c #297300",
". c #F75231",
"X c #63CE08",
"o c #B5FF52",
"O c #FF9CC6",
"+ c #DEFFDE",
/* pixels */
"ooooXXooXXooXXooXooXXooXXooXXooXXooXXooXXooXXooXooXXooXXooXXooXX",
"ooooXXooXXooXXooXooXXooXXooXXooXXooXXooXXooXXooXooXXooXXooXXooXX",
"ooXXooXXooXXooXXoXXooXXooXXooXXooXXooXXooXXooXXoXXooXXooXXooXXoo",
"ooXXooXXooXXooXXoXXooXXooXXooXXooXXooXXooXXooXXoXXooXXooXXooXXoo",
"XXooXXooXXooXXooXooXXooXXooXXooXXooXXooXXooXXooXooXXooXXooXXooXX",
"XXooXXooXXooXXooXooXXooXXooXXooXXooXXooXXooXXooXooXXooXXooXXooXX",
"XXooXXooXXooXXooXooXXooXXooXXooXXooXXooXXooXXooXooXXooXXooXXooXX",
"XXXXooXXooXXooXXoXXooXXooXXooXXooXXooXXooXXooXXoXXooXXooXXooXXoo",
"XXXXooXXooXXooXXoXXooXXooXXooXXooXXooXXooXXooXXoXXooXXooXXooXXoo",
"ooooXXooXXooXXooXooXXooXXooXXooXXooXXooXXooXXooXooXXooXXooXXooXX",
"ooooXXooXXooXXooXooXXooXXooXXooXXooXXooXXooXXooXooXXooXXooXXooXX",
"ooXXooXXooXXooXXoOO++OO++....OO++XXooXXooXXooXXoOO++OO++....OO++",
"ooXXooXXooXXooXXoOO++OO++....OO++XXooXXooXXooXXoOO++OO++....OO++",
"ooooXXoo  oo  ooX++OO++..OOOO..OOooXXoo  oo  ooX++OO++..OOOO..OO",
"ooooXXoo  oo  ooX++OO++..OOOO..OOooXXoo  oo  ooX++OO++..OOOO..OO",
"ooXX  XXooXXooXX OO++..OO....OO..XX  XXooXXooXX OO++..OO....OO..",
"ooXX  XXooXXooXX OO++..OO....OO..XX  XXooXXooXX OO++..OO....OO..",
"ooXX  XXooXXooXX OO++..OO....OO..XX  XXooXXooXX OO++..OO....OO..",
"ooooXXooXXooXXooX++....OO....OO..ooXXooXXooXXooX++....OO....OO..",
"ooooXXooXXooXXooX++....OO....OO..ooXXooXXooXXooX++....OO....OO..",
"ooXXooXXooXXooXXo..OO....OOOO..++XXooXXooXXooXXo..OO....OOOO..++",
"ooXXooXXooXXooXXo..OO....OOOO..++XXooXXooXXooXXo..OO....OOOO..++",
"XXooXXooXXooXXooX..OO........++OOooXXooXXooXXooX..OO........++OO",
"XXooXXooXXooXXooX..OO........++OOooXXooXXooXXooX..OO........++OO",
"XXXXooXXooXXooXXoOO..OOOO..++OO++XXooXXooXXooXXoOO..OOOO..++OO++",
"XXXXooXXooXXooXXoOO..OOOO..++OO++XXooXXooXXooXXoOO..OOOO..++OO++",
"ooooXXooXXooXXooX++OO....++OO++OOooXXooXXooXXooX++OO....++OO++OO",
"ooooXXooXXooXXooX++OO....++OO++OOooXXooXXooXXooX++OO....++OO++OO",
"ooooXXooXXooXXooX++OO....++OO++OOooXXooXXooXXooX++OO....++OO++OO",
"ooOO++OO++....OO+XXooXXooXXooXXooOO++OO++....OO+XXooXXooXXooXXoo",
"ooOO++OO++....OO+XXooXXooXXooXXooOO++OO++....OO+XXooXXooXXooXXoo",
"oo++OO++..OOOO..OooXXoo  oo  ooXX++OO++..OOOO..OooXXoo  oo  ooXX",
"oo++OO++..OOOO..OooXXoo  oo  ooXX++OO++..OOOO..OooXXoo  oo  ooXX",
"ooOO++..OO....OO.XX  XXooXXooXX  OO++..OO....OO.XX  XXooXXooXX  ",
"ooOO++..OO....OO.XX  XXooXXooXX  OO++..OO....OO.XX  XXooXXooXX  ",
"oo++....OO....OO.ooXXooXXooXXooXX++....OO....OO.ooXXooXXooXXooXX",
"oo++....OO....OO.ooXXooXXooXXooXX++....OO....OO.ooXXooXXooXXooXX",
"oo++....OO....OO.ooXXooXXooXXooXX++....OO....OO.ooXXooXXooXXooXX",
"oo..OO....OOOO..+XXooXXooXXooXXoo..OO....OOOO..+XXooXXooXXooXXoo",
"oo..OO....OOOO..+XXooXXooXXooXXoo..OO....OOOO..+XXooXXooXXooXXoo",
"XX..OO........++OooXXooXXooXXooXX..OO........++OooXXooXXooXXooXX",
"XX..OO........++OooXXooXXooXXooXX..OO........++OooXXooXXooXXooXX",
"XXOO..OOOO..++OO+XXooXXooXXooXXooOO..OOOO..++OO+XXooXXooXXooXXoo",
"XXOO..OOOO..++OO+XXooXXooXXooXXooOO..OOOO..++OO+XXooXXooXXooXXoo",
"oo++OO....++OO++OooXXooXXooXXooXX++OO....++OO++OooXXooXXooXXooXX",
"oo++OO....++OO++OooXXooXXooXXooXX++OO....++OO++OooXXooXXooXXooXX",
"ooXXooXXooXXooXXoXXooXXooXXooXXooXXooXXooXXooXXoXXooXXooXXooXXoo",
"ooXXooXXooXXooXXoXXooXXooXXooXXooXXooXXooXXooXXoXXooXXooXXooXXoo",
"ooXXooXXooXXooXXoXXooXXooXXooXXooXXooXXooXXooXXoXXooXXooXXooXXoo",
"ooooXXoo  oo  ooXooXXoo  oo  ooXXooXXoo  oo  ooXooXXoo  oo  ooXX",
"ooooXXoo  oo  ooXooXXoo  oo  ooXXooXXoo  oo  ooXooXXoo  oo  ooXX",
"ooXX  XXooXXooXX XX  XXooXXooXX  XX  XXooXXooXX XX  XXooXXooXX  ",
"ooXX  XXooXXooXX XX  XXooXXooXX  XX  XXooXXooXX XX  XXooXXooXX  ",
"ooooXXooXXooXXooXooXXooXXooXXooXXooXXooXXooXXooXooXXooXXooXXooXX",
"ooooXXooXXooXXooXooXXooXXooXXooXXooXXooXXooXXooXooXXooXXooXXooXX",
"ooXXooXXooXXooXXoXXooXXooXXooXXooXXooXXooXXooXXoXXooXXooXXooXXoo",
"ooXXooXXooXXooXXoXXooXXooXXooXXooXXooXXooXXooXXoXXooXXooXXooXXoo",
"XXooXXooXXooXXooXooXXooXXooXXooXXooXXooXXooXXooXooXXooXXooXXooXX",
"XXooXXooXXooXXooXooXXooXXooXXooXXooXXooXXooXXooXooXXooXXooXXooXX",
"XXooXXooXXooXXooXooXXooXXooXXooXXooXXooXXooXXooXooXXooXXooXXooXX",
"XXXXooXXooXXooXXoXXooXXooXXooXXooXXooXXooXXooXXoXXooXXooXXooXXoo",
"XXXXooXXooXXooXXoXXooXXooXXooXXooXXooXXooXXooXXoXXooXXooXXooXXoo",
"ooooXXooXXooXXooXooXXooXXooXXooXXooXXooXXooXXooXooXXooXXooXXooXX",
"ooooXXooXXooXXooXooXXooXXooXXooXXooXXooXXooXXooXooXXooXXooXXooXX"
};
