/* XPM */
static char *cfa809788f894038a593deb200eb852fXuXbQv061vnr184D[] = {
/* columns rows colors chars-per-pixel */
"64 64 9 1 ",
"  c None",
". c black",
"X c gray25",
"o c #8E0000",
"O c #BB0000",
"+ c #E60017",
"@ c #FF9270",
"# c #909090",
"$ c #F8F8F8",
/* pixels */
"                                                                ",
"                                                                ",
"                                                                ",
"                                                                ",
"                                                                ",
"                                                                ",
"                       XXXXXXXXXXXX                             ",
"                       XXXXXXXXXXXXXXX                          ",
"                       XXXXXXXXXXXXXXXXXX                       ",
"               XXXXXXXXOOOOOOOOOOOOOOOOOOXXXXXXXXX              ",
"              XXXXXXXXXOOOOOOOOOOOOOOOOOOXXXXXXXXX              ",
"              XXXXXXXXXOOOOOOOOOOOOOOOOOOXXXXXXXXX              ",
"              XXXXXXXXXOOOOOOOOOOOOOOOOOOXXXXXXXXX              ",
"              XXXXXXXXXOOOOOOOOOOOOOOOOOOXXXXXXXXX              ",
"              OOOO+++++@@@@++++++++++OOOOOOOOOooooXXX           ",
"         XXXXXOOOO+++++@@@@++++++++++OOOOOOOOOooooXXX           ",
"         XXXXXOOOO+++++@@@@++++++++++OOOOOOOOOooooXXX           ",
"         XXXXXOOOO+++++@@@@++++++++++OOOOOOOOOooooXXX           ",
"         XXXXX++++@@@@@$$$$@@@@@+++++++++OOOOOOOOOXXX           ",
"         XXXXX++++@@@@@$$$$@@@@@+++++++++OOOOOOOOOXXX           ",
"         XXXXX++.+@@@@@$$$$@@@@@++++++++.....OOOOOXXXX          ",
"         XXXXX++.+@@@@@$$$$@@@@@+++++++++.OO..OOOOXXXX          ",
"         XXXXX++.+@@@@@$$$$@@@@@+++++++++.OOO..OOOXXXX          ",
"     XXXXOOOOO++.++++++@@@@++++++++++++++.OOOO..OOoooooXXX      ",
"     XXXXOOOOO++.++++++@@@@++++++++++++++.OOOOO.OOoooooXXX      ",
"     X XXOOOOO++.++++++@@@@++++++++++++++.OOOO..OOoooooXXX      ",
"       XXOOOOO++.++++++@@@@++++++++++++++.OOOO.OOOoooooXXX      ",
"      XXX+++++++.++++++++++XXXXXXXXXXOOOO.OOO..OOOoooooXXX      ",
"     XXXX+++++++.++++++++++XXXXXXXXXXOOOO.....OOOOoooooXXX      ",
"     XXXX+++++++......+++++XXXXXXXXXXOOOOOOOOOOOOOoooooXXX      ",
"     XXXX++++++++++++++++++XXXXXXXXXXOOOOOOOOOOOOOoooooXXX      ",
"     XXXX++++++++++++++++++XXXXXXXXXXOOOOOOOOOOOOOoooooXXX      ",
"     XXXXXXXXX+++++++++XXXX$$$$$#####XXXXOOOOOooooXXXXXXXX      ",
"     XXXXXXXXX+++++++++XXXX$$$$$#####XXXXOOOOOooooXXXXXXXX      ",
"     XXXXXXXXX+++++++++XXXX$$$$$#####XXXXOOOOOooooXXXXXXXX      ",
"     XXXXXXXXX+++++++++XXXX$$$$$#####XXXXOOOOOooooXXXXXXXX      ",
"     XXXXXXXXX+++++++++XXXX$$$$$#####XXXXOOOOOooooXXXXXXXX      ",
"     XXXX$$$$$XXXXXXXXXXXXX##########XXXXXXXXXXXXX#####XXX      ",
"     XXXX$$$$$XXXXXXXXXXXXX##########XXXXXXXXXXXXX#####XXX      ",
"     XXXX$$$$$XXXXXXXXXXXXX##########XXXXXXXXXXXXX#####XXX      ",
"     XXXX$$$$$XXXXXXXXXXXXX##########XXXXXXXXXXXXX#####XXX      ",
"         XXXXX$$$$$$$$$$$$$XXXXXXXXXX#############XXXXX         ",
"         XXXXX$$$$$$$$$$$$$XXXXXXXXXX#############XXXXX         ",
"         XXXXX$$$$$$$$$$$$$XXXXXXXXXX#############XXXXX         ",
"         XXXXX$$$$$$$$$$$$$XXXXXXXXXX#############XXXXX         ",
"         XXXXX$$$$$$$$$$$$$XXXXXXXXXX#############XXXXX         ",
"         XXXXX####$$$$$$$$$$$$$$##################XXXXX         ",
"         XXXXX####$$$$$$$$$$$$$$##################XXXXX         ",
"         XXXXX####$$$$$$$$$$$$$$##################XXXXX         ",
"         XXXXX####$$$$$$$$$$$$$$##################XXXX          ",
"               XXXXXXXX##################XXXXXXXX               ",
"               XXXXXXXX##################XXXXXXXX               ",
"               XXXXXXXX##################XXXXXXXX               ",
"               XXXXXXXX##################XXXXXXXX               ",
"               XXXXXXXX##################XXXXXXX                ",
"                       XXXXXXXXXXXXXXXXXX                       ",
"                       XXXXXXXXXXXXXXXXXX                       ",
"                       XXXXXXXXXXXXXXXXXX                       ",
"                       XXX                                      ",
"                                                                ",
"                                                                ",
"                                                                ",
"                                                                ",
"                                                                "
};
