/* XPM */
static char *_ee5769b1e52488e82f1f7b24dfe93fazSnJ2XSS7uOcBLy8[] = {
/* columns rows colors chars-per-pixel */
"64 64 223 2 ",
"   c None",
".  c #3D3B2B",
"X  c #363E34",
"o  c #3C3C34",
"O  c #363E3B",
"+  c #3D3D3C",
"@  c #393537",
"#  c #550B0E",
"$  c #541011",
"%  c #660206",
"&  c #6C0004",
"*  c #65020A",
"=  c #6A0109",
"-  c #750002",
";  c #7A0002",
":  c #79020E",
">  c #680412",
",  c #780314",
"<  c #751219",
"1  c #6A1A1D",
"2  c #76221B",
"3  c #781E24",
"4  c #582D2D",
"5  c #4B3A2E",
"6  c #49372E",
"7  c #53342E",
"8  c #5C322C",
"9  c #54382D",
"0  c #5A3628",
"q  c #5B2E30",
"w  c #542C34",
"e  c #4C3534",
"r  c #443C34",
"t  c #4C3C35",
"y  c #433D3B",
"u  c #4B3C3C",
"i  c #453438",
"p  c #543633",
"a  c #5C3434",
"s  c #543A33",
"d  c #5B3B35",
"f  c #573639",
"g  c #5C343A",
"h  c #53393A",
"j  c #5B3C39",
"k  c #622E2C",
"l  c #6B2C2C",
"z  c #682824",
"x  c #742526",
"c  c #742A26",
"v  c #74262A",
"b  c #7A252A",
"n  c #742B2C",
"m  c #7A2A2B",
"M  c #7A2725",
"N  c #63332E",
"B  c #6B312D",
"V  c #73322E",
"C  c #6A2E31",
"Z  c #672E32",
"A  c #7D2C31",
"S  c #762B30",
"D  c #633233",
"F  c #633935",
"G  c #62313A",
"H  c #643C3C",
"J  c #6A3432",
"K  c #743734",
"L  c #35433C",
"P  c #3B423C",
"I  c #3B4638",
"U  c #2B473C",
"Y  c #454134",
"T  c #43423B",
"R  c #4B423C",
"E  c #46473A",
"W  c #594239",
"Q  c #3D3E41",
"!  c #433E42",
"~  c #4A3C41",
"^  c #553C41",
"/  c #653B43",
"(  c #3C4242",
")  c #344442",
"_  c #2D4841",
"`  c #434343",
"'  c #4B4444",
"]  c #434A44",
"[  c #4B4549",
"{  c #4A4748",
"}  c #534344",
"|  c #50494D",
" . c #840001",
".. c #8C0002",
"X. c #84000B",
"o. c #8B000B",
"O. c #940000",
"+. c #9B0001",
"@. c #92000D",
"#. c #99000B",
"$. c #830212",
"%. c #8D0011",
"&. c #880619",
"*. c #980314",
"=. c #891818",
"-. c #94131C",
";. c #A50000",
":. c #AB0000",
">. c #B50000",
",. c #BC0000",
"<. c #89201B",
"1. c #B6331C",
"2. c #941923",
"3. c #852326",
"4. c #852F36",
"5. c #BF222A",
"6. c #B12E35",
"7. c #B52C39",
"8. c #B82A37",
"9. c #AD313B",
"0. c #A5363D",
"q. c #B4313B",
"w. c #B73138",
"e. c #AE2A33",
"r. c #C10000",
"t. c #C20000",
"y. c #C80000",
"u. c #DD000C",
"i. c #D70506",
"p. c #CC1907",
"a. c #D5170E",
"s. c #DD0115",
"d. c #DE011C",
"f. c #DC0B19",
"g. c #D70619",
"h. c #CE1A19",
"j. c #D81818",
"k. c #E40001",
"l. c #EB0003",
"z. c #E6010D",
"x. c #EC000C",
"c. c #F20009",
"v. c #E40015",
"b. c #EB0014",
"n. c #E4001B",
"m. c #EA001C",
"M. c #E20B1B",
"N. c #F30013",
"B. c #F00019",
"V. c #E01811",
"C. c #C9210A",
"Z. c #CB2418",
"A. c #D6261A",
"S. c #DD0122",
"D. c #DD032D",
"F. c #D90A28",
"G. c #CC1423",
"H. c #CB182A",
"J. c #D4132B",
"K. c #D61326",
"L. c #C91D32",
"P. c #D21030",
"I. c #E30122",
"U. c #EB0122",
"Y. c #E4002B",
"T. c #E60626",
"R. c #EA0029",
"E. c #C52628",
"W. c #C52535",
"Q. c #C72935",
"!. c #C13328",
"~. c #E92329",
"^. c #9C3C41",
"/. c #B43142",
"(. c #8E4243",
"). c #FF7A69",
"_. c #FF7E7B",
"`. c #FF846F",
"'. c #FF8B6D",
"]. c #FF916B",
"[. c #FF9167",
"{. c #FF8472",
"}. c #FF8C73",
"|. c #FF857A",
" X c #FF8D7C",
".X c #FF9272",
"XX c #FE927D",
"oX c #FF997D",
"OX c #8D8E8C",
"+X c #8A8A89",
"@X c #928E8D",
"#X c #9B8B8D",
"$X c #998989",
"%X c #8C918D",
"&X c #86928D",
"*X c #91918D",
"=X c #8E8E92",
"-X c #938E92",
";X c #998C91",
":X c #8D9292",
">X c #929293",
",X c #999293",
"<X c #979598",
"1X c #F39B84",
"2X c #FC9688",
"3X c #F1998E",
"4X c #EDA08D",
"5X c #FFEBDC",
"6X c #FFE7D5",
"7X c #FFEEEA",
"8X c #FDEBE6",
"9X c #FCF4E7",
"0X c #EEF3F3",
"qX c #EBFAF5",
"wX c #F5F5F4",
"eX c #FBF6F6",
"rX c #F5F9F5",
"tX c #FBF9F7",
"yX c #F5F6FA",
"uX c #FBF5FA",
"iX c #F5FAFB",
"pX c #FBFBFC",
"aX c #EDEEEF",
/* pixels */
"                                                                                                                                ",
"                                                                                                                                ",
"                                                                                                                                ",
"                                                                                                                                ",
"                                                                                                                                ",
"                                              v N 8 a D D D a g g G G G D D D D l                                               ",
"                                              N s Y t t u u P ( ! ! ~ u u u u s a                                               ",
"                                              8 s s s s s h u u u u h h h t t s 8                                               ",
"                                              n c c M m x A v A n v m v n c n B n                                               ",
"                            l a d 7 F a D J n < $.o.........@.@.o.o.o.....X.X.: < m z N a d a a k l                             ",
"                            F t o ' y y R 4 S $.+.:.:.>.:.:.>.:.:.:.;.;.:.:.:.#.&.3 N W o + y i r d                             ",
"                            6 I ` O ( ( y f v X.:.>.>.,.>.>.t.t.r.r.>.,.,.,.>.;...3.F r L L ( ( P 5                             ",
"                            d . Y o o y r H A X.+.:.>.r.,.,.r.r.,.,.>.r.r.,.,.:.@.3.k 6 E L + ` o s                             ",
"                            V k z K B B l x =...O.;.>.>.>.,.>.,.>.,.r.t.y.>.>.;.O.-.M V B q a a 8 J                             ",
"                  l a s 9 V , *.O.O.5.W.L.Q.5.2X X}.).V.v.v.d.I.s.u.z.z.z.>.>.:.:.:.+.+.O.@.X.- , > N 7 s d l                   ",
"                  F t o E B #.>.>.>.n.I.n.T.h.|.`.}.}.p.v.v.I.d.d.s.m.m.m.>.>.:.>.>.>.r.>.>...O. .: 8 R o t J                   ",
"                  4 u ` r B +.r.,.,.s.f.v.s.j.|.}.}.{.j.s.v.v.n.n.d.I.n.m.>.r.>.>.>.r.,.>.>.O.O.O.; q y ` u q                   ",
"                  a y ( T B ;.>.r.>.j.p.a.h.E.|.XXXX|.E.h.f.f.s.v.v.n.n.v.,.t.,.r.>.,.>.>.>.+.O.O. .D ` Q i H                   ",
"                  d P _ P N L.n.v.f.{.}.}.XX2X5X9X9X5X1X X}.}.{.v.B.m.U.U.u.v.v.u.,.,.>.,.,.>.:.>.O.8 ( ) + H                   ",
"                  a L U L N W.I.U.f.}.'.}.2X4X7X9X9X5X4XoX].].'.u.b.z.v.v.s.v.n.m.,.>.>.>.,.,.>.>.O.N L L + a                   ",
"                  q ' ] r B Q.n.U.s.{.'..X2X3X8XeXeX8X4XoX.X[.'.a.m.v.n.s.s.n.s.v.>.>.,.,.>.,.>.r.;.K o I R 8                   ",
"                  k p j 7 M L.R.I.T.`.'.'. X3X8X7X7X5X1XXX'.].'.i.u.u.u.s.n.n.v.m.,.r.,.,.>.r.r.r.+.x 9 t p k                   ",
"                  4.3 b 4.2.G.n.d.~.).'.}.}. X5X5X5X6X X|.{.'.'.j.v.n.v.v.v.v.v.m.,.,.>.>.>.,.,.>.;.3.V l z K                   ",
"          V k k n , &.%.o.+.g.v.m.i.A.C.C.Z.1.XX1X1XXX!.Z.h.Z.a.s.v.m.v.v.v.m.m.b.r.,.>.,.>.,.>.>.;.- % * > # l a 8 B           ",
"          N s a m : +.:.;.:.M.b.x.x.M.g.s.j.p.}..X.X Xh.K.g.F.S.m.U.U.n.n.v.m.m.b.,.>.>.>.,.>.r.>.;...;  .; * l p s N           ",
"          D t s x X.;.>.>.>.u.k.c.l.m.T.n.s.i.`.'.}.|.G.J.P.P.J.D.D.F.K.F.S.n.m.m.,.>.>.>.,.,.,.>.:.O..... .* l s t a           ",
"          D t s M *.:.>.>.r.k.l.l.k.d.Y.Y.Y.~.).`.{._.Q.w./.9.6.w.7.w.w.W.G.d.v.u.,.>.>.>.,.,.,.,.>.+...O...= l h t a           ",
"          D t p b e.G.n.m.z.x.l.k.z.I.Y.Y.S.i.j.j.Z.Q.&.3 n v A m c c M =.+.>.>.r.>.>.>.>.,.>.,.,.>.+.O.O...= C h u a           ",
"          D u f m w.G.d.v.v.b.k.u.j.S.S.Y.R.U.n.f.G.8.3.D s 6 s s t 5 0 2 ..:.>.>.>.>.>.>.,.>.>.,.>.+...O. .% C h u a           ",
"          D u f b q.G.d.n.v.b.v.u.s.n.R.U.I.v.u.n.J.q.m t T T T ` P I Y c %.:.,.,.>.>.>.r.,.>.>.,.>.+...O. .% D h ~ g           ",
"          G ~ u b q.H.I.n.m.m.m.U.b.b.b.l.k.k.b.v.K.q.v r L T y ! ! L t x %.:.r.,.>.>.>.t.r.>.>.>.:.O...O. .% D ~ ~ g           ",
"          g ! ~ C ^.6.Q.W.H.I.U.m.b.N.c.N.z.i.h.E.8.^.F T L T ~ ~ ! ( R Z < @.;.;.:.>.,.t.,.>.>.>.;. .- - & $ a ~ ~ g           ",
"          f ` ( h g a a N 3.P.U.v.v.b.N.z.f.E.=.c D e eXwXpXwXtX-X-X-X-X#Xf N v <.O.>.,.r.,.O.O.+...m 0 d p e } ( ! g           ",
"          f ! ( ! ! ( L o N Q.I.n.v.b.N.v.K.6.M 7 T ` iXpXuXiXeX*X*X-X>X:X( P s c  .:.,.r.>.O.O.O.; D y X P { + ( ! g           ",
"          a ~ ! y [ P X R N 8.D.S.I.m.B.I.J.6.m a i Q yXpXwXiXrX%X%X-X>X=X` y s c X.:.>.,.>.+.O...& a T X P ` O ( ! g           ",
"          D ~ ! ~ y + ` T N 9.L.H.J.D.D.P.Q.0.v H u + pXyXiXiXrX%X%X>X>X=X` y p n &.#.:.:.;... .; > f P ( P O ` ( ! g           ",
"          D u ! [ y ` ] y a ^.9.9.q.8.8.7.0.(.F e y { yXyXpXiXwX%X*X*X>X=X` y h 8 1 : X.o.X.- & = # t X P + ` P ( u a           ",
"          D h ~ @ pX0XiXtXeXV x n n b b x l F e ' ` + <X@X+X>XOX*X*X*X:X=X` y u j D l n n n l l l D $X:X:X:X+X` T u D           ",
"          D f u { iXiX0XpX8Xp d t t p p s t R T O ( { -X,X-X<XOX*X*X*X:X=X( Q T y t t s s t t t p p *X%X%X,X,Xy u h D           ",
"          B a t y 0XiXpXwXpXR r L L P T T o L P ( Q ! -X,X>X+X%X*X*X*X:X=X` Q ` T T T T P L P T i R *X+X<X-X#X~ h a l           ",
"          n k a u pXiXiXyXwXP P P ( O ` y ` ( ( Q Q [ -X-XOX:X%X%XOX:X:XOX` | @ ! ! ( ( ( ( ` ! + T +X%X-X-X#X^ a k n           ",
"                  ~ ! Q [ y iXqXiXpXiXuXuXtXyXpXpX0XuX' + ` O P ( P P P { >XOX<X-X-X>X:X:X>X-X-X>XOX` ` ` ~ ^                   ",
"                  h i | i @ iXiXyXuXuXuXuXpXwXuXpXuXeX! + ` ( L L ( + + + <X@X@X-X-X-X-X-X-X;X;X:X:X+ { @ ~ f                   ",
"                  f ^ i u ' iXyXiXpXpXuXuXuXuXpXwXwXpX+ + + ( O O ( + ` ` +X<X-X-X-X-X-X-X-X;X-X:X:XT y ` ~ g                   ",
"                  / i y } i wXyXrXwXwXpXiXiXiXwXuXpXaXO ` ( + { Q Q ` y @ <XOX+X:X:X:X=X=XOXOX=X=X<Xy y ` y w                   ",
"                  H u + i y pXiXpX0XpXpXwXiXpXwXtXwXrX` ( + + ! ` + ` y y *X+X>X:X:X:X:X>X>X>X:X:X=X` T X R /                   ",
"                  q T ] T T =X=X+X<XwXtXeXwXtXtXtXrXrXiXiXiXpXuX=X-X-X;X>X*X*X&X&X%X%XOX@X@XOX%X>X=Xy r ] y w                   ",
"                  7 R X T T OX:X*X+XtXwXtXeXeXeXtXwXrXwXiXiXuXpX>X>X@X;X,X+X>X%X%X:X:X>X*X*X*X%X=X>Xy T X T a                   ",
"                  W Y X T o <XOXOX>XwXpXwXiXwXeXeXeXeXeXiXiXiXiX:X:X>X>X-X-X>X>XOXOX:X%X>XOX*XOXOX<Xy T o Y d                   ",
"                  0 9 W p h @X%XOX*XpXwX0XpXpXiXuXuXeXeXeXrXrXrX%X%X%X@X-X-X-X-X-X<X:XOXOXOX<XOX%X*Xh p W 9 0                   ",
"                            h T { @ { ` ` ` O >X>X>X>X>X>X%X%X%X:X:X>X>X>X>X>X>X>X+ @ ` ` ` O T ` h                             ",
"                            f o + ` + [ @ ! ` =X=X%XOXOXOXOX@X@X@X@XOXOX@X%X=X=X=X! { { @ + ` ` o f                             ",
"                            p T P T + y [ ' ` -X:X:X:X%X*X@X#X#X#X#X@X*X%X%X:X:X-X[ y y [ @ T P T p                             ",
"                            d . R i u i e u i ,X*X%X%X%X*X@X#X#X#X#X@X@X%X%X%XOX,X@ } u u } u r . d                             ",
"                            N s 7 d q H H a j $X@X%X%X%X:X-X;X#X;X;X-X:X%X%X%X@X#Xj g a a a 4 j s 8                             ",
"                                              f u T L L ( ` ! ~ ~ ! ` ( L L T u f                                               ",
"                                              a h u P P ( ( ` ! ! ` ( ( P P u h a                                               ",
"                                              C a s u T y y u u u u y y T u h a C                                               ",
"                                              v C D a f f g g g g g f f f a D C v                                               ",
"                                                                                                                                ",
"                                                                                                                                ",
"                                                                                                                                ",
"                                                                                                                                ",
"                                                                                                                                "
};
