/* XPM */
static char *_ffb0f0fd3b74246dca63c3d8af7cf46wLKSpSOL5ZbYDQ1E[] = {
/* columns rows colors chars-per-pixel */
"64 64 4 1 ",
"  c #393939",
". c gray42",
"X c gray68",
"o c #DEFFDE",
/* pixels */
"oooooooooooooo         XXXXXXXXXXXXXXXXXXXXXXX         ooooooooo",
"oooooooooooooo         XXXXXXXXXXXXXXXXXXXXXXX         ooooooooo",
"oooooooooooooo         XXXXXXXXXXXXXXXXXXXXXXX         ooooooooo",
"oooooooooooooo         XXXXXXXXXXXXXXXXXXXXXXX         ooooooooo",
"ooooooooo     XXXXXXXXXoooooooooooooooooooooooXXXXXXXXX    ooooo",
"ooooooooo     XXXXXXXXXoooooooooooooooooooooooXXXXXXXXX    ooooo",
"ooooooooo     XXXXXXXXXoooooooooooooooooooooooXXXXXXXXX    ooooo",
"ooooooooo     XXXXXXXXXoooooooooooooooooooooooXXXXXXXXX    ooooo",
"ooooooooo     XXXXXXXXXoooooooooooooooooooooooXXXXXXXXX    ooooo",
"ooooo    XXXXXoooooooooooooooooooooooooooooooooooooooooXXXX     ",
"ooooo    XXXXXoooooooooooooooooooooooooooooooooooooooooXXXX     ",
"ooooo    XXXXXoooooooooooooooooooooooooooooooooooooooooXXXX     ",
"ooooo    XXXXXoooooooooooooooooooooooooooooooooooooooooXXXX     ",
"ooooo    XXXXXoooooooooooooooooooooooooooooooooooooooooXXXX     ",
"ooooo    XXXXXoooooooooooooooooooooooooooooooooooooooooXXXX     ",
"ooooo    XXXXXoooooooooooooooooooooooooooooooooooooooooXXXX     ",
"ooooo    XXXXXoooooooooooooooooooooooooooooooooooooooooXXXX     ",
"ooooo    oooooXXXXXXXXXoooooooooooooooooooooooXXXXXXXXXoooo     ",
"ooooo    oooooXXXXXXXXXoooooooooooooooooooooooXXXXXXXXXoooo     ",
"ooooo    oooooXXXXXXXXXoooooooooooooooooooooooXXXXXXXXXoooo     ",
"ooooo    oooooXXXXXXXXXoooooooooooooooooooooooXXXXXXXXXoooo     ",
"ooooo    ooooooooooooooXXXXXXXXXXXXXXXXXXXXXXXooooooooooooo     ",
"ooooo    ooooooooooooooXXXXXXXXXXXXXXXXXXXXXXXooooooooooooo     ",
"ooooo    ooooooooooooooXXXXXXXXXXXXXXXXXXXXXXXooooooooooooo     ",
"ooooo    ooooooooooooooXXXXXXXXXXXXXXXXXXXXXXXooooooooooooo     ",
"ooooo    ooooooooooooooXXXXXXXXXXXXXXXXXXXXXXXooooooooooooo     ",
"ooooo    XXXXXoooooooooooooooooooooooooooooooooooooooooXXXX     ",
"ooooo    XXXXXoooooooooooooooooooooooooooooooooooooooooXXXX     ",
"ooooo    XXXXXoooooooooooooooooooooooooooooooooooooooooXXXX     ",
"ooooo    XXXXXoooooooooooooooooooooooooooooooooooooooooXXXX     ",
"ooooo    .....XXXXXXXXXoooooooooooooooooooooooXXXXXXXXX....     ",
"ooooo    .....XXXXXXXXXoooooooooooooooooooooooXXXXXXXXX....     ",
"ooooo    .....XXXXXXXXXoooooooooooooooooooooooXXXXXXXXX....     ",
"ooooo    .....XXXXXXXXXoooooooooooooooooooooooXXXXXXXXX....     ",
"ooooo    ..............XXXXXXXXXXXXXXXXXXXXXXX.............     ",
"ooooo    ..............XXXXXXXXXXXXXXXXXXXXXXX.............     ",
"ooooo    ..............XXXXXXXXXXXXXXXXXXXXXXX.............     ",
"ooooo    ..............XXXXXXXXXXXXXXXXXXXXXXX.............     ",
"ooooo    ..................XXXXXXXXXXXXXX..................     ",
"ooooo    ..................XXXXXXXXXXXXXX..................     ",
"ooooo    ..................XXXXXXXXXXXXXX..................     ",
"ooooo    ..................XXXXXXXXXXXXXX..................     ",
"ooooo    ..................XXXXXXXXXXXXXX..................     ",
"ooooo    ..................XXXXXXXXXXXXXX..................     ",
"ooooo    ..................XXXXXXXXXXXXXX..................     ",
"ooooo    ..................XXXXXXXXXXXXXX..................     ",
"ooooo    ..................XXXXXXXXXXXXXX..................     ",
"ooooo....     .............XXXXXXXXXXXXXX..............    .....",
"ooooo....     .............XXXXXXXXXXXXXX..............    .....",
"ooooo....     .............XXXXXXXXXXXXXX..............    .....",
"ooooo....     .............XXXXXXXXXXXXXX..............    .....",
"ooooooooo.....         ....XXXXXXXXXXXXXX.....         ....ooooo",
"ooooooooo.....         ....XXXXXXXXXXXXXX.....         ....ooooo",
"ooooooooo.....         ....XXXXXXXXXXXXXX.....         ....ooooo",
"ooooooooo.....         ....XXXXXXXXXXXXXX.....         ....ooooo",
"oooooooooooooo.........                       .........ooooooooo",
"oooooooooooooo.........                       .........ooooooooo",
"oooooooooooooo.........                       .........ooooooooo",
"oooooooooooooo.........                       .........ooooooooo",
"oooooooooooooo.........                       .........ooooooooo",
"ooooooooooooooooooooooo.......................oooooooooooooooooo",
"ooooooooooooooooooooooo.......................oooooooooooooooooo",
"ooooooooooooooooooooooo.......................oooooooooooooooooo",
"ooooooooooooooooooooooo.......................oooooooooooooooooo"
};
